<?xml version="1.0" standalone="no"?><!DOCTYPE svg PUBLIC "-//W3C//DTD SVG 1.1//EN" "http://www.w3.org/Graphics/SVG/1.1/DTD/svg11.dtd"><svg t="1761986789007" class="icon" viewBox="0 0 1029 1024" version="1.1" xmlns="http://www.w3.org/2000/svg" p-id="7431" xmlns:xlink="http://www.w3.org/1999/xlink" width="257.25" height="256"><path d="M571.904 153.6S542.72 153.6 517.12 286.72s-133.12 163.84-168.96 225.28c-26.112 44.544 5.12 174.08-25.6 240.64s-78.336 122.88-70.144 143.36c8.704 20.48 16.896 52.224 253.44-81.408l239.104 105.984S803.84 911.36 798.72 855.04s-34.816-214.528-34.816-214.528L926.72 465.92s51.2-79.36-43.52-93.184c-94.72-14.336-200.192-30.72-200.192-30.72L571.904 153.6z" fill="#FFC800" p-id="7432"></path><path d="M655.36 184.32s-56.32 5.12-81.92 125.952-133.12 148.992-168.96 204.8c-26.112 40.448 5.12 158.208-25.6 218.624S300.544 844.8 308.736 863.744c8.704 18.432 16.896 47.616 253.44-73.728l239.104 96.256s58.88-8.192 53.76-59.392-34.816-195.072-34.816-195.072l162.816-158.72s51.2-72.192-43.52-84.992c-94.72-12.8-200.192-27.648-200.192-27.648L655.36 184.32z" fill="#FFC800" p-id="7433"></path><path d="M813.568 897.024c-6.656 0-13.312-1.024-19.968-3.584l6.656-19.456c13.312 4.608 27.648 2.048 38.912-7.168 10.752-9.216 15.872-23.04 13.312-37.376l-31.232-181.248c-3.584-19.456 3.072-39.424 17.408-53.76l131.584-128c11.264-10.752 14.848-26.112 10.24-40.96-4.608-14.848-16.896-25.088-32.256-27.136l-33.28-4.608 3.072-20.48 33.28 4.608c23.04 3.584 41.472 18.944 48.64 40.96 7.168 22.016 1.536 45.568-15.36 61.952l-131.584 128c-9.216 9.216-13.824 22.528-11.264 35.328l31.232 181.248c3.584 21.504-4.096 42.496-20.48 56.32-11.264 10.752-24.576 15.36-38.912 15.36zM738.816 360.448c-7.168-5.632-13.312-12.8-17.408-21.504L640 174.592c-5.632-11.264-15.36-18.944-27.136-21.504-12.288-2.56-25.088 0.512-34.304 8.192l-13.312-15.872c13.824-11.776 33.28-16.384 51.712-12.288 17.92 3.584 33.28 15.872 41.472 32.256l81.408 164.864c2.56 5.632 6.656 10.24 11.776 13.824l-12.8 16.384zM221.184 362.496c-1.024-5.632 3.072-10.752 8.704-11.776l39.936-6.144c5.632-1.024 10.752 3.072 11.776 8.704 1.024 5.632-3.072 10.752-8.704 11.776l-39.936 6.144c-5.632 0.512-10.752-3.072-11.776-8.704z" fill="#020202" p-id="7434"></path><path d="M285.184 930.816c-13.312 0-27.136-4.096-38.4-12.8-20.48-14.848-30.208-39.424-26.112-64l33.792-198.656c2.56-14.336-2.56-29.184-12.8-39.936L97.792 475.136c-19.968-19.456-25.6-49.664-12.8-75.776 9.728-19.456 29.184-32.768 50.688-35.84l33.28-4.608c5.632-1.024 10.752 3.072 11.776 8.704 1.024 5.632-3.072 10.752-8.704 11.776L138.24 384c-16.384 2.56-31.232 12.8-36.864 28.672-6.656 17.408-2.56 35.328 10.752 48.128L256 601.088c15.36 14.848 22.528 36.864 18.944 57.856L240.64 857.6c-3.072 17.408 3.584 33.792 17.92 44.032s31.744 11.776 47.104 3.584l178.176-93.696c18.944-10.24 41.984-10.24 60.928 0l178.176 93.696c15.36 8.192 33.28 6.656 47.104-3.584 14.336-10.24 20.992-26.624 17.92-44.032l-33.792-198.656c-3.584-20.992 3.584-43.008 18.944-57.856L917.504 460.8c13.312-12.8 16.896-31.232 10.752-48.128-6.144-15.36-20.48-26.112-36.864-28.672l-197.632-28.672c-21.504-3.072-39.424-16.384-49.152-35.84l-88.576-179.2c-7.168-14.848-22.016-25.6-38.4-26.112-18.432-1.024-34.816 8.704-42.496 25.088L385.024 319.488c-7.68 15.872-21.504 27.136-37.376 32.768-6.144 2.048-12.288-2.048-13.312-8.192-0.512-4.608 2.048-9.728 6.656-11.264 11.264-3.584 20.48-11.776 25.6-22.528L455.68 129.536c11.264-22.528 33.28-36.352 58.368-36.352s47.616 13.824 58.368 36.352l89.088 180.736c6.656 13.312 18.944 22.528 33.792 24.576l199.168 29.184c24.576 3.584 45.056 20.48 52.736 44.544 7.68 24.064 1.536 49.664-16.384 67.072l-144.384 140.8c-10.752 10.24-15.36 25.088-12.8 39.936l33.792 198.656c4.608 27.648-8.192 55.296-34.304 69.12-19.456 10.24-43.008 9.216-61.952-1.024L535.552 829.44c-13.312-6.656-28.672-6.656-41.984 0l-178.176 93.696c-9.728 5.12-19.968 7.68-30.208 7.68z" fill="#020202" p-id="7435"></path><path d="M772.096 230.912l-18.432-68.096-64.512-14.336 64.512-19.456 20.48-61.44 18.432 61.44 64.512 21.504-65.024 12.288-19.968 68.096z m-43.008-83.968l32.768 7.68 10.752 39.424 11.776-39.424 32.256-6.144-32.768-10.752-10.752-35.84-11.776 35.84-32.256 9.216zM708.608 818.688l-28.672-111.104c-1.536-5.632 2.048-11.264 7.168-12.288 5.632-1.536 11.264 2.048 12.288 7.168l28.672 111.104c1.536 5.632-2.048 11.264-7.168 12.288-5.632 1.536-11.264-2.048-12.288-7.168z" p-id="7436"></path></svg>