<?xml version="1.0" standalone="no"?><!DOCTYPE svg PUBLIC "-//W3C//DTD SVG 1.1//EN" "http://www.w3.org/Graphics/SVG/1.1/DTD/svg11.dtd"><svg t="1761986950821" class="icon" viewBox="0 0 1024 1024" version="1.1" xmlns="http://www.w3.org/2000/svg" p-id="13599" xmlns:xlink="http://www.w3.org/1999/xlink" width="256" height="256"><path d="M147.582867 412.62669l0.507469 0.317168 1.014938 0.579965c2.011752 1.096496 5.219681 2.673274 9.496921 4.675965l8.092318 3.697274c7.530478 3.389168 17.018336 7.521416 28.336708 12.369557l18.078584 7.675469a8835.035752 8835.035752 0 0 0 77.896496 32.351151c-3.860389 4.893451-7.521416 9.922832-10.964956 15.07908l4.956885 2.038938a7733.465487 7733.465487 0 0 1-93.673345-39.020744l-16.257133-6.995823c-8.953204-3.887575-16.393062-7.195186-22.238017-9.895646l-5.573098-2.618902-1.812389-0.879009-9.877522 20.815292-15.858407 33.547327-10.294372 21.929912-19.41069 41.730265-8.427611 18.368567-3.02669 6.669592c-4.893451 10.783717-8.953204 19.881912-12.034266 26.986478l-3.461663 8.164815c-1.884885 4.540035-2.999504 7.521416-3.271363 8.744778l-7.639222-1.667398 7.757027 3.062938c-4.168496 10.56623-7.512354 26.179965-7.847646 43.234549l-0.027186 3.434478c0.108743 26.57869 7.548602 52.50492 24.286018 76.392212 46.134372 65.889416 155.113345 107.719363 343.728708 113.229027l21.078088 0.543716c7.068319 0.163115 14.046018 0.299044 20.933098 0.425912 18.71292 3.506973 38.123611 5.355611 58.014584 5.355611 20.054088 0 39.60977-1.875823 58.458619-5.437169 120.650761-2.646088 206.938619-13.91915 266.439363-33.230159 64.593558-20.969345 94.724531-48.236743 117.80531-95.27731 24.938478-50.719717 18.468248-121.81069-24.875044-207.672637a417.284531 417.284531 0 0 0-10.457487-19.392566l-32.586761-59.301381L847.926372 458.534513l-5.90839 1.984567c-27.539257 9.243186-55.368496 18.47731-82.871504 27.493947a235.356885 235.356885 0 0 0-11.327434-15.378124c16.384-5.346549 32.912991-10.792779 49.432921-16.284319l44.892885-14.997522 54.045451-18.305133 7.204248-2.473911 39.836318 72.495575c3.697274 6.433982 7.294867 13.121699 10.838089 20.099398 45.70846 90.546973 52.695221 167.437593 24.965663 223.839151-25.18315 51.317805-59.083894 82.001558-128.480283 104.529557-82.354973 26.732743-212.593274 38.322973-409.763115 33.764814l-15.106265-0.37154c-197.541381-4.911575-313.679292-48.934513-364.226832-121.11292-32.786124-46.814018-33.692319-99.074265-19.374443-137.623788l0.398726-1.014938-0.407788-0.090619c1.504283-6.88708 15.31469-37.969558 39.319788-89.595469l16.728354-35.79469 10.448425-22.20177 25.047221-52.767717 16.094018 8.282619 0.308106-0.616212a7.86577 7.86577 0 0 0-0.888071-8.092319l-0.534655-0.688708a5.591221 5.591221 0 0 0-1.014938-0.996814z" fill="#017A0A" p-id="13600"></path><path d="M258.32892 701.48531l-1.277734 0.144991a4026.485805 4026.485805 0 0 1-207.518584 17.054584l-1.024-18.087646a4014.070938 4014.070938 0 0 0 203.350088-16.637735c1.903009 5.935575 4.077876 11.780531 6.47023 17.525806z m680.733452-191.723611l10.203752 14.98846c-27.27646 18.576991-80.805381 42.409912-151.542938 66.260956a221.990513 221.990513 0 0 0-2.79108-18.187327c67.710867-22.990159 118.648071-45.70846 144.130266-63.062089z" fill="#017A0A" p-id="13601"></path><path d="M341.816637 805.924248l1.81239 1.313982 1.857699 1.341168-3.670089-2.65515a283.376142 283.376142 0 0 0 21.902726 14.589734l0.317168 0.181239-7.956389 1.323044c-62.980531 10.24-120.532956 15.586549-170.708956 15.396248l0.072495-18.123894c46.08 0.172177 98.757097-4.440354 156.372956-13.366371z m629.895929-184.682478l11.418053 14.046018c-8.173876 6.660531-87.674336 37.498336-175.928637 67.53869l-7.929203 2.691398c-7.557664 2.555469-15.133451 5.083752-22.718301 7.602974l0.217487-0.453098c0.74308-1.540531 1.468035-3.090124 2.174867-4.648779l-2.392354 5.101877a230.4 230.4 0 0 0 8.300743-19.347257l1.060248-2.881699 7.557664-2.537345 14.816283-5.047505a3256.918088 3256.918088 0 0 0 100.478867-36.139044l16.71023-6.433982c25.835611-10.085947 44.548531-18.132956 46.224991-19.50131z" fill="#017A0A" p-id="13602"></path><path d="M241.111221 610.186195l-13.293876 1.458973c-25.735929 2.74577-51.843398 5.210619-78.005239 7.412673l-15.704354 1.295858c-14.653168 1.178053-28.617628 2.211115-41.721203 3.11731l-22.763611 1.486159-19.329133 1.123682-0.906194-18.10577 19.120708-1.105558 22.636743-1.486159A3721.460673 3721.460673 0 0 0 242.31646 591.835752a216.290549 216.290549 0 0 0-1.214301 18.350443zM117.587823 466.780885l137.723469 70.501947c-2.147681 5.709027-4.068814 11.508673-5.754336 17.408l-140.233629-71.77062 8.264496-16.139327z" fill="#017A0A" p-id="13603"></path><path d="M803.350655 755.721062l11.481487 2.501097c59.319504 12.641416 108.235894 18.350442 122.653451 13.35731l5.926513 17.12708c-20.017841 6.932389-75.40446 0-143.994336-15.296567l-11.336496-2.582655a1116.957451 1116.957451 0 0 1-41.730265-10.529982c4.159434-5.056566 8.065133-10.258124 11.762407-15.59561 14.046018 3.742584 29.505699 7.512354 45.237239 11.019327z" fill="#017A0A" p-id="13604"></path><path d="M512.996814 0.960566c-43.597027 0.453097-84.140177 17.444248-122.318159 45.835328a354.204319 354.204319 0 0 0-28.273274 23.50669c-2.510159 2.301735-4.902513 4.549097-7.485169 7.013947L345.169558 86.731894c-45.128496 42.056496-111.489133 143.205947-186.966089 277.585557a4137.231858 4137.231858 0 0 0-27.104283 49.070443l-13.955398 25.853734c-36.700885 68.535504-67.420885 130.102372-73.274903 146.89416l-0.471221 1.404601 0.271858-0.670584c-33.628885 83.986124-14.408496 150.337699 37.888 198.32977a209.294726 209.294726 0 0 0 36.764319 26.932106l2.229239 1.268673 4.168495 2.283611c3.941947 2.102372 7.249558 3.67915 9.786903 4.757522l-0.906195-0.543717c97.406867 60.04446 259.842265 79.183292 453.133593 66.270018 16.973027-1.132743 34.063858-2.537345 51.055009-4.168496l9.252248-0.906195 9.469734-0.97869c118.149664-12.514549 227.454867-35.169416 251.704637-51.607788l0.842761-0.598088-0.226548 0.054372a16.492743 16.492743 0 0 0 3.44354-1.141806c50.54754-26.334018 76.84531-69.622938 83.59646-124.293663 4.395044-35.577204 0.308106-73.247717-9.152567-110.075469a353.923398 353.923398 0 0 0-7.467044-25.282832l-1.603964-4.621593-1.558655-4.195682 0.253734 0.996815c-9.243186-39.075115-56.048142-119.780814-131.008566-232.330195l-8.454797-12.650478-9.560354-14.200071-10.19469-15.006584c-9.469735-13.873841-19.936283-29.04354-30.747186-44.593841l-26.678371-38.223292-21.050903-29.922548c-34.299469-48.626407-62.010903-87.221239-59.953841-83.714266l-0.244672-0.362478-0.706832-0.797451C624.377204 27.765805 568.999646 0.398726 512.996814 0.960566z m0.271859 27.185841h3.044814c46.696212 0.543717 93.782088 24.440071 141.139823 77.506832l0.090619-0.099681 13.438867 18.576991 24.467257 34.317593c10.819965 15.251257 23.080779 32.604885 35.731257 50.620035l20.543433 29.32446a7104.276389 7104.276389 0 0 1 46.397169 67.176213l11.436176 16.900531 13.148885 19.637238 12.732036 19.229452c65.336637 99.264566 106.767858 171.841699 114.434265 204.265345l0.235611 0.996814 0.897133 2.265487c0.598088 1.576779 1.449912 3.932885 2.482973 7.004885 2.347044 6.932389 4.70315 14.770973 6.896142 23.343575 8.672283 33.801062 12.414867 68.254584 8.491044 99.98046l-0.453097 3.452602c-5.709027 40.053805-23.515752 71.616566-56.184071 92.830584l-1.033062 0.634336-0.208425 0.018124a15.894655 15.894655 0 0 0-2.301734 0.335292l-2.220177 0.516531c-0.299044 0.090619-0.534655 0.181239-0.933381 0.344354l-1.939257 0.960567-1.069309 0.715893-9.551292 6.977699c-18.785416 13.882903-142.780035 38.522336-268.278938 49.922266l-8.853522 0.779327a1647.461947 1647.461947 0 0 1-30.937487 2.365169l-14.046018 0.88807c-179.535292 10.584354-330.09954-7.838584-419.550018-61.086584l-4.413168-2.682336-1.993628-0.842761a156.499823 156.499823 0 0 1-12.994832-6.733027 182.335434 182.335434 0 0 1-31.988673-23.41607c-43.633274-40.053805-59.663858-93.519292-32.450831-164.564956l1.821451-4.639717 0.244673-1.06931 0.299044-1.060248c1.694584-5.219681 8.898832-20.624991 19.655363-42.246796l3.606654-7.21331a4173.479646 4173.479646 0 0 1 50.085381-96.147256l10.901522-20.19908 7.376425-13.529487 9.288495-16.873345 11.146195-19.999717 6.506478-11.54492c70.266336-124.148673 132.340673-218.320425 173.481912-257.758018l5.328424-5.092814 3.932885-3.806018c3.497912-3.371044 6.47023-6.18931 9.641912-9.098194a327.435327 327.435327 0 0 1 26.116531-21.721487c33.955115-25.246584 69.323894-40.080991 106.360071-40.452531z" fill="#017A0A" p-id="13605"></path><path d="M412.771681 166.286726a39.872566 39.872566 0 0 0-37.878938 27.18584l24.104779 12.596107-24.104779 12.505486a39.872566 39.872566 0 1 0 37.878938-52.378053v0.09062zM563.625912 201.175221c25.55469-16.737416 55.259752-17.398938 83.487716 8.491044a12.460177 12.460177 0 0 1-16.855221 18.359505c-18.939469-17.371752-36.21154-16.99115-52.976142-6.008071-4.476602 2.936071-7.666407 5.826832-9.12538 7.476106a12.460177 12.460177 0 1 1-18.613239-16.583363c2.809204-3.153558 7.566726-7.467044 14.082266-11.735221zM594.282478 280.730053a12.460177 12.460177 0 0 1 16.673982 18.504496c-5.328425 4.802832-10.765593 9.333805-16.29338 13.583858-55.459115 42.59115-113.455575 54.525735-161.819186 49.686655l-2.917947-0.32623a70.266336 70.266336 0 0 1-4.005381-0.589027 12.460177 12.460177 0 0 1 3.316673-24.666619l2.963257 0.425911c0.815575 0.108743 1.866761 0.226549 3.126371 0.362478 42.554903 4.259115 94.343929-6.406796 144.157452-44.657274a245.370336 245.370336 0 0 0 14.798159-12.324248z" fill="#017A0A" p-id="13606"></path></svg>