<?xml version="1.0" standalone="no"?><!DOCTYPE svg PUBLIC "-//W3C//DTD SVG 1.1//EN" "http://www.w3.org/Graphics/SVG/1.1/DTD/svg11.dtd"><svg t="1761986687840" class="icon" viewBox="0 0 1024 1024" version="1.1" xmlns="http://www.w3.org/2000/svg" p-id="6022" xmlns:xlink="http://www.w3.org/1999/xlink" width="256" height="256"><path d="M999.98662 584.892l0.146 0.084-51.326-357.138-126.672 50.926 36.648 255.006-0.144-0.084c10.786 63.494 0.362 130.924-34.316 190.988-53.222 92.182-150.026 143.564-249.548 143.254l-1.584 12.538c137.558 79.42 313.278 32.596 392.48-104.586 34.678-60.066 45.1-127.494 34.316-190.988z" fill="#D7FA91" p-id="6023"></path><path d="M644.78662 767.63c71.912-105.19 81.982-246.312 14.16-363.784-40.89-70.826-103.388-121.408-174.416-148.308l0.02-0.012L216.20862 146.62 180.63262 394.17l0.172-0.098c-12.846 75.622-0.43 155.928 40.87 227.464 86.006 148.964 267.564 208.444 423.112 146.094z" fill="#A5DC69" p-id="6024"></path><path d="M1020.10662 583.968a20.402 20.402 0 0 0-0.178-1.838L968.60262 224.994a20.006 20.006 0 0 0-27.26-15.714l-236.206 94.964c-10.25 4.12-15.216 15.77-11.098 26.018 4.122 10.252 15.774 15.218 26.02 11.098l212.568-85.462 47.362 329.552c0.026 0.928 0.118 1.86 0.276 2.792 10.356 60.964-0.982 124.05-31.92 177.638-35.63 61.712-93.226 105.816-162.184 124.192-68.976 18.38-141.058 8.818-202.974-26.926-0.428-0.248-0.868-0.456-1.306-0.668a362.36 362.36 0 0 0 37.406-32.694l234.156-62.742c10.672-2.858 17.004-13.828 14.144-24.498-2.858-10.67-13.834-17.004-24.496-14.144l-180.172 48.276c19.798-29.452 35.286-61.932 45.87-96.682l160.744-43.07c10.672-2.858 17.004-13.828 14.144-24.498-2.858-10.67-13.834-17.004-24.496-14.144l-118.276 31.692 44.476-77.038 93.99-25.184c10.672-2.858 17.004-13.828 14.144-24.498-2.86-10.67-13.834-17.004-24.496-14.144l-55.35 14.832 42.56-73.718c5.524-9.566 2.246-21.8-7.32-27.322-9.568-5.524-21.8-2.246-27.322 7.32l-42.56 73.716-14.832-55.35c-2.86-10.67-13.83-17.004-24.496-14.144-10.672 2.858-17.004 13.828-14.144 24.498l25.184 93.99-26.024 45.076c0.768-64.026-15.614-127.298-48.448-184.166-41.346-71.612-106.596-127.228-183.812-156.692l-0.384-0.162-90.504-36.732a20 20 0 0 0-26.054 11.012c-4.154 10.238 0.776 21.902 11.012 26.056l89.68 36.396c0.406 0.186 0.82 0.358 1.24 0.518 68.978 26.122 127.286 75.7 164.178 139.602 42.944 74.384 54.272 161.086 31.896 244.142-20.642 76.612-67.694 141.64-133.414 185.088l-33.568-58.14 72.774-271.592c2.86-10.672-3.472-21.638-14.144-24.498a20 20 0 0 0-24.496 14.144L478.25262 735.94l-74.052-128.262 50.488-188.416c2.86-10.672-3.472-21.638-14.144-24.498-10.674-2.86-21.636 3.474-24.496 14.144l-40.132 149.776-58.374-101.106 30.406-113.47c2.86-10.672-3.472-21.638-14.144-24.498a20 20 0 0 0-24.496 14.144l-20.054 74.83-55.3-95.784c-5.522-9.568-17.756-12.846-27.322-7.32-9.566 5.522-12.846 17.756-7.32 27.322l55.3 95.782-74.828-20.05c-10.674-2.86-21.636 3.474-24.496 14.144-2.86 10.672 3.472 21.638 14.144 24.498l113.468 30.406 58.374 101.106-149.772-40.13c-10.674-2.86-21.636 3.474-24.496 14.144-2.86 10.672 3.472 21.638 14.144 24.498l188.412 50.486 74.052 128.262-232.95-62.418c-10.676-2.86-21.636 3.474-24.496 14.144-2.86 10.672 3.472 21.638 14.144 24.498l271.59 72.772 33.564 58.134c-151.148 75.332-337.162 21.076-422.476-126.69-37.292-64.592-50.956-140.632-38.474-214.114 0.17-0.992 0.26-1.982 0.276-2.968L101.90662 121.816l132.502 53.778a19.996 19.996 0 0 0 26.054-11.012c4.154-10.238-0.776-21.902-11.012-26.056L93.26662 75.134a20.01 20.01 0 0 0-27.322 15.69L4.81862 516.172a19.794 19.794 0 0 0-0.186 2.02c-13.276 81.834 2.208 166.314 43.706 238.19 66.826 115.75 188.588 180.492 313.756 180.49 55.282 0 111.218-12.678 163.386-39.12l24.582 42.576a19.998 19.998 0 0 0 27.324 7.322c9.568-5.522 12.846-17.756 7.32-27.322l-9.114-15.788c44.196 22.944 92.402 34.682 141.184 34.682 26.58 0 53.332-3.474 79.686-10.498 79.3-21.132 145.548-71.864 186.528-142.846 35.178-60.926 48.322-132.534 37.116-201.91z" fill="" p-id="6025"></path><path d="M316.37862 207.286c5.26 0 10.422-2.14 14.14-5.86a20.152 20.152 0 0 0 5.862-14.162c0-5.26-2.122-10.402-5.862-14.142a20.144 20.144 0 0 0-14.14-5.86c-5.262 0-10.422 2.14-14.142 5.86a20.188 20.188 0 0 0-5.86 14.142c0 5.28 2.138 10.422 5.86 14.162a20.148 20.148 0 0 0 14.142 5.86zM855.39862 372.238a19.98 19.98 0 0 0 16.202 8.25 19.928 19.928 0 0 0 11.738-3.818c8.938-6.49 10.924-19 4.432-27.936l-0.12-0.164c-6.492-8.938-19.002-10.922-27.938-4.43-8.938 6.49-10.924 19-4.432 27.936l0.118 0.162z" fill="" p-id="6026"></path></svg>