<?xml version="1.0" standalone="no"?><!DOCTYPE svg PUBLIC "-//W3C//DTD SVG 1.1//EN" "http://www.w3.org/Graphics/SVG/1.1/DTD/svg11.dtd"><svg t="1761987036700" class="icon" viewBox="0 0 1433 1024" version="1.1" xmlns="http://www.w3.org/2000/svg" p-id="16319" xmlns:xlink="http://www.w3.org/1999/xlink" width="358.25" height="256"><path d="M450.674582 1007.221859a343.786539 343.786539 0 0 1-139.844592-656.773387A343.786539 343.786539 0 0 1 498.122105 93.233061a337.959597 337.959597 0 0 1 149.834491-34.961648 341.288564 341.288564 0 0 1 332.964648 268.037302 337.126606 337.126606 0 0 1 114.872843 44.117555 343.786539 343.786539 0 0 1 164.818341 293.842042q0 17.479824-1.664984 34.128656h4.161959a154.828441 154.828441 0 0 1 0 309.656883H450.674582z" fill="#D2F7FF" p-id="16320"></path><path d="M1262.276411 995.567976a157.325416 157.325416 0 0 0-117.368818-261.377368h-4.162958q1.664983-17.479824 1.664983-34.961648a349.61348 349.61348 0 0 0-167.315316-298.835991 344.61853 344.61853 0 0 0-116.537826-44.949548A347.116505 347.116505 0 0 0 417.377918 98.228011a345.451522 345.451522 0 0 1 526.084703 213.097854 342.953547 342.953547 0 0 1 115.705835 44.117556 346.283513 346.283513 0 0 1 166.482324 296.338017q0 17.480824-1.664984 34.129656h4.161959a156.493424 156.493424 0 0 1 33.296664 308.824891z" fill="#9CEDFF" p-id="16321"></path><path d="M1312.221908 962.271312a157.325416 157.325416 0 0 0-117.370818-261.377369h-4.161958q1.664983-17.479824 1.664983-34.961648A349.61348 349.61348 0 0 0 1025.0388 367.096304a344.61853 344.61853 0 0 0-116.536827-44.949547A347.116505 347.116505 0 0 0 467.323415 64.931346a345.451522 345.451522 0 0 1 526.084703 213.097855 342.953547 342.953547 0 0 1 115.704835 44.117556 346.283513 346.283513 0 0 1 166.482324 296.338016q0 17.480824-1.664983 34.129656h4.161958a156.493424 156.493424 0 0 1 33.296664 308.824891z" fill="#32B7FF" p-id="16322"></path><path d="M1202.343014 1023.869691h-84.906145a33.296665 33.296665 0 0 1 0-66.592329h84.906145a122.780764 122.780764 0 0 0 0-245.561528h-3.329966a34.129656 34.129656 0 0 1-24.971749-10.821891 33.296665 33.296665 0 0 1-9.156907-25.80474c0.832992-9.988899 1.664983-20.80979 1.664983-30.79969a311.321865 311.321865 0 0 0-26.636732-127.358718 33.296665 33.296665 0 0 1 60.765388-26.636731 377.915195 377.915195 0 0 1 32.464673 153.996449v3.329967a188.958098 188.958098 0 0 1-30.79969 376.249211z m-178.136206 0H990.911143a33.296665 33.296665 0 0 1 0-66.592329h33.296665a33.296665 33.296665 0 0 1 0 66.592329z m-142.342567 0h-501.944946a379.580178 379.580178 0 0 1-171.476274-718.371767 380.41217 380.41217 0 0 1 68.257313-153.163458 33.296665 33.296665 0 0 1 53.274464 39.955598 313.81984 313.81984 0 0 0-58.269414 140.678584 33.296665 33.296665 0 0 1-19.144807 24.971748 312.986849 312.986849 0 0 0 127.358718 599.336966h501.944946a33.296665 33.296665 0 0 1 0 66.592329z m212.264863-596.006999a33.296665 33.296665 0 0 1-23.306765-9.155908 313.81984 313.81984 0 0 0-54.939447-42.453572 33.296665 33.296665 0 0 1 34.961648-56.60443 380.41217 380.41217 0 0 1 67.425321 51.60948 33.296665 33.296665 0 0 1-23.307765 57.437422z m-177.303215-90.733086a33.296665 33.296665 0 0 1-32.464673-25.804741A314.651832 314.651832 0 0 0 580.531275 66.596329a307.992899 307.992899 0 0 0-137.348617 31.631682 33.321665 33.321665 0 0 1-29.133707-59.934397A374.586229 374.586229 0 0 1 580.531275 0.003 381.245161 381.245161 0 0 1 950.121554 296.342016a33.296665 33.296665 0 0 1-24.972749 39.955598z" fill="" p-id="16323"></path><path d="M392.405169 486.964097a37.458623 37.458623 0 1 0 74.918246 0 37.458623 37.458623 0 1 0-74.917246 0zM742.018649 486.964097a37.458623 37.458623 0 1 0 74.917246 0 37.458623 37.458623 0 1 0-74.917246 0z" fill="" p-id="16324"></path><path d="M508.943996 665.933295h191.454072a95.727036 95.727036 0 0 1-191.454072 0z" fill="#FF8472" p-id="16325"></path><path d="M604.671032 774.146206A112.375869 112.375869 0 0 1 492.296163 666.765287a16.647832 16.647832 0 0 1 16.648833-17.480824h191.454072a16.647832 16.647832 0 0 1 16.648833 17.479824 112.375869 112.375869 0 0 1-112.375869 107.381919z m-76.582229-91.565078a79.079204 79.079204 0 0 0 152.331466 0z" fill="" p-id="16326"></path><path d="M209.275013 674.257211a49.944497 49.944497 0 1 0 99.888994 0 49.944497 49.944497 0 1 0-99.888994 0zM850.23256 674.257211a49.944497 49.944497 0 1 0 99.888994 0 49.944497 49.944497 0 1 0-99.888994 0z" fill="#FAD700" p-id="16327"></path></svg>